<svg width="12" height="8" viewBox="0 0 12 8" fill="none" xmlns="http://www.w3.org/2000/svg">
<path d="M0 6.98643V1.0184C0 0.466117 0.447714 0.0184021 0.999999 0.0184021H5.54371C6.16452 0.0184021 6.63531 0.578163 6.52891 1.18979L5.49069 7.15782C5.40737 7.63679 4.99165 7.98643 4.50549 7.98643H1C0.447715 7.98643 0 7.53872 0 6.98643Z" fill="#2B5FDA"/>
<path d="M11.9963 0.999994L11.9742 7.00001C11.9722 7.55229 11.5228 8 10.9706 8L6.4265 8C5.80596 8 5.33731 7.44072 5.44549 6.8293L6.50712 0.829283C6.59192 0.350007 7.00908 -4.76484e-07 7.4955 -4.76484e-07L11 -4.76484e-07C11.5523 -4.76484e-07 11.9984 0.447713 11.9963 0.999994Z" fill="#B198FF"/>
</svg>
